<svg xmlns="http://www.w3.org/2000/svg" viewBox="0 0 100 100">
  <symbol id="category_rezervuarVoda" viewBox="0 0 100 100">
    <path 
      stroke="currentColor" 
      stroke-width="2" 
      stroke-miterlimit="10"
      d="M63.6 21.6l-25-2.5s-7.3-.8-9.5.8c-.5.7-1.1 2.5 1.8 3.8C33.8 25 59 34.3 82.5 37.3c1.3.3 3.1 1.1 3.6 3.1.5 2.1 5.5 17.4 5.5 17.4S80.9 69.9 56.8 78.5 11 86.4 8.5 73.3c0-7.8-1.4-25.6 17.4-54.8 1.1-1 2.8-2.8 9.5-2.7 6.7 0 18.1 1 25.3 3.2l2.5 1 3.1 9.2s-.1 1.7-3.8 4"
    />
    <path 
      stroke="currentColor" 
      stroke-width="2" 
      stroke-miterlimit="10"
      d="M38.9 27l-8 10.6s-1.4 2.9-4.5 1.3-7.2-4.3-7.2-4.3-1-.5.4-2.8S26.8 20 26.8 20s.7-.8 1.3-.3c.6.4.6 1 .6 1M8.6 68.3s4.5 11.1 17.6 10.6c13.1-.5 40.5-4.5 64.7-25.3"
    />
  </symbol>
</svg>
