<?xml version="1.0" encoding="UTF-8"?>
<!-- This file is generated by npm run build:icons -->
<svg xmlns="http://www.w3.org/2000/svg" xmlns:xlink="http://www.w3.org/1999/xlink" width="0" height="0">
<defs>

//** Category**//

//********//Nasos//************//

 <symbol id="category_nasos" viewBox="0 0 106.62 116.35">
    <path d="M19.95 1.32h84.31c.58 0 1.05.47 1.05 1.05v35.95c0 .09-.01.18-.04.27a8.604 8.604 0 0 0-8.57-7.83c-4.07 0-7.48 2.83-8.38 6.62-7.29-5.58-16.4-8.9-26.29-8.9s-18.91 3.28-26.17 8.81a8.604 8.604 0 0 0-16.92 1.3c-.02-.09-.04-.18-.04-.27V2.37c0-.58.47-1.05 1.05-1.05zm13.89 7c4.37 0 7.92 3.54 7.92 7.92s-3.54 7.92-7.92 7.92-7.92-3.54-7.92-7.92 3.54-7.92 7.92-7.92z"
    fill="none" stroke="#2c2c30" stroke-miterlimit="10" stroke-width="2.64"
    />
    <path d="M62.03 28.48c9.89 0 19 3.32 26.29 8.9.9-3.8 4.31-6.62 8.38-6.62a8.61 8.61 0 0 1 1.42 17.1 43.097 43.097 0 0 1 7.19 23.89c0 6.41-1.4 12.5-3.9 17.97a8.596 8.596 0 0 1 3.9 7.2 8.61 8.61 0 0 1-8.61 8.61c-2.05 0-3.92-.71-5.4-1.91-7.7 7.08-17.98 11.4-29.27 11.4s-21.5-4.3-29.2-11.34a8.53 8.53 0 0 1-5.33 1.85 8.61 8.61 0 0 1-8.61-8.61c0-2.97 1.5-5.59 3.79-7.13a43.135 43.135 0 0 1-3.93-18.04c0-8.84 2.65-17.06 7.21-23.92a8.61 8.61 0 0 1 1.54-17.08c4.04 0 7.42 2.78 8.35 6.53a43.08 43.08 0 0 1 26.17-8.81zm37.25 65.3a42.575 42.575 0 0 1-4.79 6.58c.63.41 1.39.64 2.2.64a4.078 4.078 0 0 0 2.59-7.23zm-69.67 6.64a43.57 43.57 0 0 1-4.79-6.56 4.078 4.078 0 0 0 4.79 6.56zM96.7 35.29c2.25 0 4.08 1.82 4.08 4.08s-1.82 4.08-4.08 4.08-4.08-1.82-4.08-4.08 1.82-4.08 4.08-4.08zm-66.41 7.05l.39-.42c.57-.7.9-1.59.9-2.56 0-2.25-1.82-4.08-4.08-4.08s-4.08 1.82-4.08 4.08 1.82 4.08 4.08 4.08c1.08 0 2.05-.42 2.78-1.1zM62.03 59.8c6.6 0 11.95 5.35 11.95 11.95S68.63 83.7 62.03 83.7s-11.95-5.35-11.95-11.95S55.43 59.8 62.03 59.8zM13.46 5.41h5.44v20.7h-5.44zM1.32 8.39h12.14v14.74H1.32z"
    fill="none" stroke="#2c2c30" stroke-miterlimit="10" stroke-width="2.64"
    />
    <path fill="#2c2c30" d="M27.24 13.68l9.81 8.66h2.47L27.24 11.49v2.19zm1.03-3.67l12.29 10.85v-2.18l-9.82-8.67h-2.47z"
    />
  </symbol>

 //********//category_korpusniDetali//************//

<symbol xmlns="http://www.w3.org/2000/svg" id="category_korpusniDetali" viewBox="0 0 105.61 44.99"><path fill="#2c2c30" d="M0 2.86h105.61V0H0v2.86zm0 42.13h105.61v-2.86H0v2.86z"/><path fill="#2c2c30" d="M0 0v44.99h2.86V0H0zm102.75.52v44.47h2.86V.52h-2.86z"/><circle cx="14.07" cy="13.74" r="6.62" fill="none" stroke="#2c2c30" stroke-miterlimit="10" stroke-width="2.64"/><circle cx="14.07" cy="31.25" r="6.62" fill="none" stroke="#2c2c30" stroke-miterlimit="10" stroke-width="2.64"/><circle cx="38.85" cy="22.75" r="6.62" fill="none" stroke="#2c2c30" stroke-miterlimit="10" stroke-width="2.64"/><circle cx="62.36" cy="22.75" r="6.62" fill="none" stroke="#2c2c30" stroke-miterlimit="10" stroke-width="2.64"/><circle cx="85.86" cy="22.75" r="6.62" fill="none" stroke="#2c2c30" stroke-miterlimit="10" stroke-width="2.64"/><g fill="#2c2c30"><circle cx="38.88" cy="22.75" r="1.22"/><circle cx="40.66" cy="20.34" r=".56"/><circle cx="37.04" cy="25.17" r=".56"/></g><g fill="#2c2c30"><circle cx="62.36" cy="22.75" r="1.22"/><circle cx="64.13" cy="20.34" r=".56"/><circle cx="60.51" cy="25.17" r=".56"/></g><g fill="#2c2c30"><circle cx="85.86" cy="22.75" r="1.22"/><circle cx="87.64" cy="20.34" r=".56"/><circle cx="84.02" cy="25.17" r=".56"/></g></symbol>

 //********//category_platu//************//

<symbol id="category_platu" viewBox="0 0 100 100">
    <path d="M6.1 70.2V27.3c.5-.4 1-.8 1.4-1.3 2.6-3 5.1-6 7.6-9.1.8-1 1.7-1.4 3-1.4 6.5.1 13 0 19.5 0h56.3v54.6h-7.5v14.3H11.6V70.1c-2 .1-3.7.1-5.5.1zm84.3-51.1c-.6-.1-.9-.1-1.2-.1H19c-.7 0-1.5.5-1.9 1-2.1 2.4-4.3 4.9-6.2 7.5-.6.9-1.2 2.1-1.2 3.1-.1 11.4-.1 22.8-.1 34.3 0 .6.1 1.1.2 1.9h7.1v3.1c-.6.2-1.2.3-1.7.5v10.7h67.7V70.2c-1.2-.1-2.2-.2-3.3-.2v-3.3c3 0 6-.1 8.9 0 1.6.1 2-.5 2-2-.1-9.6 0-19.2 0-28.9-.1-5.4-.1-11-.1-16.7z"
    />
    <path d="M65.1 46.3c-5.3 1.5-8.5-1.2-11-5.5-1.7-2.8-3.9-5.4-5.9-8-.5-.6-1.6-1.1-2.4-1.2-2.9-.1-5.7 0-8.6-.1-1.4 0-2.2.3-2.9 1.6-1.6 3-4.8 4.4-7.9 3.7-2.9-.7-5.4-3.6-5.5-6.6-.2-3.3 2.1-6.4 5.3-7.3 3.1-.9 6.5.6 8 3.6.7 1.4 1.5 1.7 2.9 1.6 3.3-.1 6.6 0 9.9-.1 1.4 0 2.3.3 3.1 1.5 2.9 4 5.8 8 8.9 11.8.5.7 1.6 1.2 2.5 1.3 2.9.2 5.7 0 8.6.1 1.4 0 2.2-.3 2.9-1.6 1.5-2.9 4.8-4.4 7.7-3.8 2.9.7 5.5 3.6 5.7 6.5.3 3.3-2 6.4-5.3 7.5-3 .9-6.5-.5-8-3.6-.7-1.3-1.5-1.7-2.9-1.6-1.7.3-3.4.2-5.1.2zM24.3 30c0 2.3 1.4 3.8 3.7 3.8 2.2 0 3.8-1.5 3.8-3.8s-1.5-3.8-3.8-3.8c-2.2 0-3.6 1.4-3.7 3.8zM83 44.6c0-2.3-1.5-3.8-3.8-3.8s-3.8 1.5-3.8 3.8 1.5 3.8 3.8 3.8 3.8-1.5 3.8-3.8zm-14.9 11c0 3.1-2.4 6.1-5.5 7-2.8.8-6.2-.6-7.7-3.5-.8-1.5-1.6-1.8-3.2-1.8-4.9.1-9.7.1-14.6 0-1.4 0-2.1.4-2.8 1.7-1.7 3.2-5.3 4.6-8.4 3.4-3.5-1.3-5.5-4.7-4.8-8.2.6-3.3 4-6 7.3-5.8 2.8.1 4.8 1.6 6 4 .6 1.2 1.4 1.5 2.6 1.4 5.1 0 10.1-.1 15.2 0 1.2 0 1.9-.3 2.5-1.5 1.6-3.1 5-4.6 7.9-3.8 3.2 1 5.5 4 5.5 7.1zM28 51.8c-2.3 0-3.7 1.5-3.6 3.9 0 2.4 1.4 3.7 3.8 3.7 2.3 0 3.7-1.5 3.7-3.8-.1-2.3-1.6-3.8-3.9-3.8zm33.1 7.5c2.3 0 3.7-1.5 3.6-3.9-.1-2.3-1.5-3.7-3.9-3.7-2.2.1-3.7 1.6-3.7 3.9.1 2.3 1.7 3.8 4 3.7zm16.1 7.6c-.1 1.4 1.1 3.2-1.7 3.4V79H64.8V66.9h12.4zm-9 8.7h3.7v-5.3h-3.7v5.3zM20.9 79c0-2.5-.1-4.8 0-7.1 0-1.3-.3-2-1.8-1.8v-3.3h12.3V79H20.9zm7.1-3.4v-5.4h-3.6v5.4H28z"
    />
    <path d="M66.5 39c-3.7 0-7.2-3.3-7.2-7-.1-3.7 3.5-7.3 7.2-7.3 3.8 0 7.2 3.5 7.1 7.3 0 3.7-3.4 7-7.1 7zm0-11c-2.3 0-3.8 1.5-3.8 3.7 0 2.3 1.4 3.8 3.7 3.8 2.4 0 3.8-1.3 3.8-3.7 0-2.3-1.4-3.8-3.7-3.8zM46.1 79.2h-9.5c-.3 0-.6-.1-1-.1V66.9h10.6c-.1 4-.1 8-.1 12.3zm-7.1-9v5.4h3.7v-5.4H39zm1.7-20.3c-3.8 0-7.1-3.4-7-7.1 0-3.8 3.5-7.2 7.2-7.2 3.6.1 7.1 3.5 7.1 7.2.1 3.7-3.4 7.2-7.3 7.1zm.1-3.4c2.3 0 3.8-1.4 3.8-3.7 0-2.2-1.6-3.8-3.8-3.8-2.2 0-3.8 1.5-3.8 3.8.1 2.3 1.5 3.7 3.8 3.7zm9.5 32.7V66.9h10.5v11.3c0 .4-.7 1-1 1h-9.5zm7-9h-3.6v5.4h3.6v-5.4zm25.8-47.3h3.2v3.2h-3.2v-3.2zM13.7 59.4h3.2v3.2h-3.2v-3.2zm69.4 0h3.1v3.2h-3.1v-3.2z"
    />
  </symbol>

 //********//category_accsecuari//************//

	<symbol id="category_accsecuari" viewBox="0 0 1152.29 906.18">
    <path class="fil0" d="M72.8 669.47V230.8h690.44v438.67H72.8zm40.5-40.76h609.45V271.55H113.3v357.16z"
    />
    <path class="fil1" d="M67.08 904.39V714.17h33.24v156.76H600.6V714.17h33.24v190.22z"
    />
    <path class="fil2 str0" d="M275.48 160.32h444.14c60.33 0 109.68 49.35 109.68 109.68 0 51.84-36.44 95.57-84.96 106.85V249.71H167.71c9.58-50.72 54.37-89.39 107.77-89.39zm404.13 490.25c-11.21 48.62-54.99 85.15-106.89 85.15H128.58c-60.33 0-109.68-49.35-109.68-109.68 0-47.4 30.47-88.02 72.8-103.25v127.78h587.91z"
    />
    <path class="fil1" d="M207.12 169.87V0h566.76v169.87h-33.24V33.46H240.36v136.41z"
    />
    <circle class="fil2 str0" cx="719.68" cy="697.97" r="44.34" />
    <circle class="fil0" cx="325.07" cy="93.36" r="30.12" />
    <circle class="fil0" cx="489.64" cy="93.36" r="30.12" />
    <circle class="fil0" cx="654.22" cy="93.36" r="30.12" />
    <circle class="fil0" cx="185.88" cy="797.11" r="30.12" />
    <circle class="fil0" cx="350.46" cy="797.11" r="30.12" />
    <circle class="fil0" cx="515.04" cy="797.11" r="30.12" />
    <path class="fil3" d="M836.83 840.95h239.36v-40.94H836.83zm0-63.45h239.36v-40.93H836.83zm0-63.44h239.36v-40.93H836.83zm.09 190.33h239.36v-40.93H836.92z"
    />
    <path class="fil2 str0" d="M683.78 683.15s74.18 214.55 174.27 5.84" />
    <path class="fil2 str1" d="M1012.05 875.42c126.13 119.42 153.2-414.24 73.24-805.1"
    />
    <path class="fil3" d="M1107.88 429.66l-2.56 137.51 44.41.83 2.56-137.51zm18.54-195.84L1102.91 5.25l-44.04 5.73 38.3 226.51z"
    />
    <circle class="fil0" cx="387.9" cy="450.14" r="30.12" />
    <path class="fil3" d="M278.66 249.71V632.1h40.93V249.71z" />
  </symbol>

 //********//category_electroKlapan//************//

  <symbol id="category_electroKlapan" viewBox="0 0 100 100">
    <g fill="#000305">
      <path d="M83.6 49.9v24.9c0 2-.4 2.3-2.4 2.3h-7.6c-.7 0-.9.2-.9.9.2 3.6-.7 3.3-3.3 3.3H55.1c-1.7 0-2.1-.4-2.1-2.1 0-2.1 0-2.1-2.1-2.1h-3.5c-1.1 0-1.7-.4-2.1-1.4l-5.4-13.2c-.3-.7-.6-.9-1.3-.9H24.8c-5.1 0-8-2.9-8-8.1V24.8c0-4.3 2.2-6.9 6.4-7.6.7-.1.8-.4.8-1V9.6c0-1.3.5-1.8 1.9-1.8h12.6c1.4 0 1.9.5 1.9 1.9v6.4c0 .9.3 1.1 1.1 1.1h34.2c5.2 0 8 2.8 8 8.1-.1 8.2-.1 16.4-.1 24.6zm-31.7 8.8h27.6c.9 0 1.1-.2 1.1-1.1 0-10.6-.1-21.2 0-31.9 0-3.2-1-5.6-5.5-5.6-11.8.1-23.6 0-35.4 0-2 0-2.4-.4-2.4-2.5v-6c0-.6-.1-.9-.8-.9h-8.6c-.8 0-.9.3-.9 1v6.2c0 1.7-.5 2.2-2.2 2.2-3.5 0-4.9 1.5-4.9 5v28.3c0 3.7 1.5 5.2 5.1 5.2 8.9.1 17.9.1 26.9.1zm9.9 3.5H44c-.8 0-1.1.1-.7 1 1.5 3.4 2.9 6.9 4.3 10.4.2.6.6.7 1.2.7h30.8c.8 0 .9-.3.9-1v-10c0-.8-.2-1.1-1.1-1.1H61.8zm.9 16.2h6.2c.4 0 .7 0 .7-.5 0-.6-.4-.5-.8-.5H56.7c-.3 0-.8-.1-.8.5 0 .7.4.6.8.6 2.1-.1 4.1-.1 6-.1zm.2 4.8h8.9c1.4 0 1.9.6 1.9 2-.3 5.8-5.1 10.4-11 10.3-5.7 0-10.4-4.7-10.6-10.4 0-1.3.5-1.9 1.8-1.9h9zm0 3h-6.6c-.8 0-1 .2-.8 1 1 3.1 4.1 5.3 7.5 5.3 3.4 0 6.4-2.3 7.4-5.4.2-.7.1-.8-.6-.8-2.4 0-4.7-.1-6.9-.1z"
      />
      <path d="M37.8 49.6c0 3-2.6 5.5-5.5 5.4-3-.1-5.5-2.6-5.4-5.5.1-3 2.6-5.4 5.5-5.4 3 0 5.4 2.5 5.4 5.5zm-3.1-.1c0-1.3-1.1-2.5-2.5-2.4-1.3 0-2.4 1.1-2.4 2.4 0 1.3 1.1 2.4 2.4 2.4 1.4.1 2.5-1 2.5-2.4z"
      />
    </g>
  </symbol>
 //********//category_provoda//************//

<symbol id="category_provoda" viewBox="0 0 100 100">
    <path d="M67.8 68.7c-1.7-.7-3.4-1.1-4.9-2-5.3-2.9-8.4-7.5-8.7-13.5-.2-4.6-.1-9.2-.1-13.7 0-1.4 1-2.5 2.4-2.6 1-.1 1.9 0 3 0v-14c0-1.8 1.2-3 2.9-2.9 1.2.1 2.3 1 2.5 2.3.1.4.1.7.1 1.1v13.5h11.2V23.4c0-.7.2-1.5.5-2.1.6-1 1.9-1.4 3-1.1 1.2.4 2 1.3 2 2.6v14.1h2.2c2.1 0 3.2 1.1 3.2 3.2v12c-.1 6.9-3.2 12-9.4 15.1-1.2.6-2.6.9-3.9 1.3-.4.1-.6.2-.6.6-.3 3.4-1.6 6.5-3.8 9.1-4 4.6-9.1 6.6-15.1 5.7-6.5-1-10.9-4.9-13.2-11.1-.7-1.9-.9-3.8-.9-5.8V30.4c0-2.3-.8-4.2-2.7-5.6-2.2-1.7-4.7-2-7.2-.8-2.6 1.2-4.1 3.3-4.1 6.2V67c0 .4 0 .8-.1 1.1-.3 1.4-1.5 2.3-2.8 2.2-1.4-.1-2.5-1.2-2.6-2.6V30.3c0-7.4 6.1-13.1 13.4-12.6 6.7.5 11.7 5.9 11.6 12.5-.1 9.7 0 19.4 0 29.1v8.1c0 5.4 3.5 9.7 8.7 11 6.1 1.4 12.6-3.1 13.2-9.4.2-.2.2-.3.2-.3zm-8.1-26.4v9.8c0 .7.1 1.5.2 2.2 1.1 5.6 6.2 9.3 12.1 8.8 5.4-.5 9.7-5.2 9.7-10.7v-10c-7.4-.1-14.7-.1-22-.1z"
    />
  </symbol>

 //********//category_pidoshva_utuga//************//

<symbol id="category_pidoshvaUtuga" viewBox="0 0 100 100">
    <path fill="none" stroke="#000" stroke-width="2" stroke-miterlimit="10"
    d="M71.5 76.9H24c-1 0-1.4-.2-1.5-1.3-.8-5.9-1.1-11.9-.8-17.8.2-4.5 1.1-8.9 2.2-13.2 3-11.9 9.4-21.8 17.6-30.8 1.4-1.6 3-3.1 4.5-4.6.9-.9 1.5-1 2.4-.1C59.5 19.5 67.7 31.7 71 46.9c1.9 8.9 2 17.9 1 26.9-.2 1-.3 2-.5 3.1zM32.9 44.3c-1.8 0-3.3 1.6-3.3 3.4 0 1.7 1.7 3.4 3.3 3.4 1.8 0 3.4-1.7 3.3-3.5 0-1.8-1.5-3.3-3.3-3.3zM61 51c1.9 0 3.3-1.4 3.4-3.5 0-1.5-1.6-3.1-3.3-3.2-1.8-.1-3.4 1.4-3.4 3.3 0 1.8 1.5 3.4 3.3 3.4zM41.1 34.4c0-1.8-1.5-3.3-3.3-3.3-1.8 0-3.3 1.5-3.3 3.3 0 1.8 1.5 3.3 3.3 3.3 1.7 0 3.3-1.5 3.3-3.3zm22.3 30.4c1.8 0 3.3-1.6 3.3-3.4 0-1.8-1.6-3.3-3.4-3.3-1.8 0-3.3 1.6-3.3 3.4 0 1.9 1.6 3.3 3.4 3.3zm-13-42.9c0-1.8-1.6-3.3-3.4-3.3-1.8 0-3.3 1.6-3.3 3.4 0 1.8 1.5 3.3 3.4 3.3 1.8 0 3.3-1.5 3.3-3.4zM34 61.4c0-1.8-1.6-3.3-3.4-3.3-1.8 0-3.3 1.6-3.3 3.4 0 1.8 1.6 3.3 3.4 3.3 1.8 0 3.3-1.5 3.3-3.4zm25.6-27c0-1.8-1.5-3.3-3.3-3.3-1.8 0-3.3 1.5-3.3 3.3 0 1.8 1.5 3.3 3.3 3.3 1.8 0 3.3-1.5 3.3-3.3zm-36 48.1h47c-.6 2.4-1 4.8-1.7 7.1-.2.6-1.2 1-1.9 1.4-.3.2-.8 0-1.2 0H28.2c-2.3 0-2.8-.4-3.3-2.7-.5-1.9-.9-3.8-1.3-5.8z"
    />
  </symbol>

 //********//category_korpus_utuga//************//

  <symbol id="category_korpusUtuga" viewBox="0 0 100 100">
  <path d="M75.8 77.7c-3.5 0-6.4-2.9-6.4-6.4 0-3.5 2.9-6.4 6.4-6.4 3.5 0 6.4 2.9 6.4 6.4 0 3.5-2.9 6.4-6.4 6.4zm0-11c-2.6 0-4.6 2.1-4.6 4.6s2.1 4.6 4.6 4.6 4.6-2.1 4.6-4.6-2-4.6-4.6-4.6z"
  />
  <path d="M75.2 88h-1.5c-1 0-1.6-.5-1.7-1.5-.2-1-.3-2.1-.5-3.1-.2-.1-.4-.2-.7-.3-.1 0-.2-.1-.3-.1-.6.5-1.3 1-1.9 1.5l-.5.4c-1 .8-1.8.4-2.3-.1-1.1-1.1-2.2-2.1-3.2-3.2-.7-.7-.7-1.6-.1-2.4.6-.7 1.1-1.5 1.7-2.2-.2-.4-.3-.8-.5-1.2-.5-.1-.9-.1-1.4-.2-.5-.1-1.1-.2-1.6-.2-1.1-.1-1.6-.7-1.6-1.8v-4.3c0-1 .5-1.6 1.6-1.8 1-.1 2-.3 3-.5.1-.3.3-.7.4-1-.6-.8-1.2-1.5-1.7-2.2l-.1-.1c-.4-.5-.8-1.2 0-2.1 1.1-1.4 2.3-2.5 3.5-3.5 1-.8 1.6-.6 2.4 0l.8.6c.5.4 1 .8 1.5 1.1.3-.1.6-.3 1-.4.2-1.2.4-2.3.5-3.3.2-.9.7-1.3 1.7-1.3h4.4c.9 0 1.5.5 1.7 1.4l.2 1 .3 2.1c.4.1.7.3 1 .4.6-.5 1.2-.9 1.8-1.3l.7-.5c.7-.6 1.6-.5 2.2.1 1 1 2.1 2.1 3.2 3.3 1.1 1.1.3 2.1.1 2.4-.6.7-1.1 1.5-1.7 2.2l.3.6c.1.2.1.3.2.5.9.1 1.7.3 2.6.4l.5.1c.9.1 1.5.7 1.5 1.7v4.4c0 1-.5 1.6-1.6 1.8-1 .1-2 .3-3.1.5-.2.4-.3.7-.4 1 .6.7 1.1 1.5 1.7 2.2.5.7.9 1.5-.1 2.5-1.2 1.3-2.2 2.3-3.2 3.2-1 .9-1.7.7-2.6 0l-.6-.5-1.5-1.2c-.3.1-.6.3-1 .4-.2 1.2-.3 2.3-.5 3.2-.3 1.1-1.2 1.3-1.8 1.3h-2.8zm-1.6-1.8H78c.2-1 .3-2.1.5-3.4.1-.5.4-.9.8-1.1.4-.2.9-.4 1.3-.5.6-.3 1.1-.1 1.4.2.6.5 1.1.9 1.7 1.4l.6.5c.1.1.2.1.2.2l.1-.1c.9-.9 1.9-1.8 3.1-3.1l.1-.1s-.1-.1-.1-.2c-.6-.8-1.3-1.6-1.9-2.4-.2-.3-.4-.8-.2-1.2.2-.5.4-1 .7-1.6.2-.4.5-.6.9-.7 1.1-.2 2.2-.4 3.3-.5h.1v-4.3l-.5-.1c-1-.1-1.9-.3-2.9-.5-.5-.1-.8-.4-.9-.7-.1-.2-.2-.5-.3-.7-.1-.2-.2-.5-.3-.7-.3-.7-.1-1.2.2-1.5l1.8-2.4.1-.1c-1.1-1.2-2.2-2.3-3.1-3.2l-.7.4c-.7.5-1.3 1-2 1.5-.4.3-.9.4-1.4.2-.3-.2-.7-.4-1.2-.5-.6-.2-.9-.6-1-1.2-.1-.8-.2-1.5-.3-2.3l-.2-1h-4.4c-.2 1-.4 2.1-.5 3.4-.1.5-.4.9-.8 1.1-.5.2-.9.4-1.3.5-.5.2-1 .2-1.4-.2-.5-.4-1.1-.9-1.6-1.3l-.8-.6c-.1-.1-.1-.1-.2-.1 0 0-.1 0-.1.1-1.1.8-2.1 1.9-3.1 3.2l.1.1c.6.8 1.3 1.6 1.9 2.4.2.3.4.8.2 1.3-.2.6-.5 1.1-.7 1.6-.1.3-.5.6-.9.7-1.1.2-2.2.3-3.3.5h-.1v4.4h.1c.5.1 1.1.2 1.6.2.5.1 1.1.2 1.6.2.5.1.8.4 1 .9.2.5.3.9.6 1.4.3.5.2 1.1-.2 1.6-.6.8-1.2 1.5-1.8 2.3 0 .1-.1.1-.1.1l.1.1c1 1.1 2 2.1 3.1 3.2l.5-.4c.7-.5 1.4-1.1 2.2-1.6.4-.3.9-.3 1.2-.2l.6.3.6.3c.6.2.9.6 1 1.2.3.9.5 1.9.6 3zm-2.9-3.4zm17.2-7.3zm-23.8-8.6zm.2-.8z"
  />
  <path fill="none" stroke="#000" stroke-width="2" stroke-linejoin="round"
  stroke-miterlimit="10" d="M74.6 21.3c.1.3.2.6.2.9-.4.1-.7.2-.9.3-.4-.2-.7-.4-.9-.4-.4.1-.4.5-.3.8-.6.4-1.2.7-1.8 1.1-.3-.3-.5-.8-.9-.4-.5.3-.1.7.1 1-.3.3-.6.5-.9.8.6 1.2 1.3 2.3 2 3.6-.5.5-1.1 1.1-1.7 1.6-.3.2-.2.4-.1.7 2.5 5 4.5 10.2 6.2 15.7-.8.2-1.5.4-2.3.6-5.4 1.4-11 2.4-16.6 3-6.5.8-13.1 1.2-19.7 1.4-7.9.3-15.7.3-23.6.2H9.7c.3-.7.5-1.2.7-1.7 2.7-6.3 6.6-11.8 12-16.1 4.8-3.8 10.3-6.3 16.2-7.9 4.2-1.1 8.5-1.7 12.8-2 3.5-.2 7-.2 10.5-.1.2 0 .4-.1.6-.2.3-.3.6-.6.9-1 .4.1.8.7 1.2.1.1-.2-.1-.5-.1-.8-.1 0-.1 0-.2-.1.7-.4 1.4-.9 2.1-1.3v.1c.3.1.6.2.8.2.2-.1.2-.4.3-.7l-.1-.1 2.1-.9v.2c.3.1.5.4.8.3.4-.1.4-.4.2-.9 1.1-.2 2.2-.4 3.2-.6.1 0 .2.1.3.2.1.1.1.3.2.5.4-.1.7-.1 1-.2 2.2-.3 4.3-.3 6.3.8 2.3 1.3 3.5 3.2 3.8 5.8.4 2.5.2 5.1-.2 7.6-.5 3.9-1.1 7.7-1.6 11.6-.3 2.2-.4 4.4 0 6.6.7 4 3.4 6.9 7.7 7.3v1.9c-.6-.1-1.1-.1-1.6-.2-4.5-1-7-4-8-8.3-.5-2.4-.4-4.8-.1-7.2.5-3.9 1.1-7.7 1.6-11.6.3-2.3.5-4.6.3-7-.4-3.9-3.2-5.7-6.6-5.5-.5 0-1.1.1-1.6.2-.2 0-.4.1-.6.1zM61.1 40.7c-.2-1.4-.3-2.7-.5-3.9-.3-1.9-.7-3.8-1.5-5.6-.1-.3-.3-.4-.7-.4-3.4-.2-6.7-.1-10.1.3-4.1.5-8 1.5-11.8 3.1-.2.1-.4.2-.5.4-1.6 2-2.1 4.4-2.2 7 2.1-.1 4.2-.1 6.3-.2v-1.9c0-.8.5-1.4 1.3-1.4h10.5c.9 0 1.4.6 1.4 1.5v1.5c2.6-.2 5.1-.3 7.8-.4z"
  />
  <path fill="none" stroke="#000" stroke-width="2" stroke-miterlimit="10"
  d="M76.3 48.8c.3 1.1.6 2.3.9 3.3-1.8.6-3.5 1.2-5.1 1.8-2.9 1.1-5.7 2.6-8.3 4.4-.2.2-.5.3-.8.3H7.6c.3-1.1.6-2.1.9-3 .2-.5.2-1.2.5-1.4.3-.2 1-.1 1.5-.1 7.9 0 15.7 0 23.6-.1 6.1-.1 12.2-.5 18.3-1 8.1-.6 16-2 23.8-4.2h.1z"
  />
  <path d="M64.1 61.2V64H6.3v-2.8h57.8zM27.7 27.6c.1 1 .1 1-.7 1.5-1.6 1-3.1 2-4.7 3v-4.4c1.8-.1 3.6-.1 5.4-.1z"
  />
</symbol>

 //********//category_rezervuarVoda//************//

<symbol xmlns="http://www.w3.org/2000/svg" id="category_rezervuarVoda" viewBox="0 0 100 100">
  <path fill="none" stroke="#000" stroke-width="2" stroke-miterlimit="10"
  d="M63.6 21.6l-25-2.5s-7.3-.8-9.5.8c-.5.7-1.1 2.5 1.8 3.8C33.8 25 59 34.3 82.5 37.3c1.3.3 3.1 1.1 3.6 3.1.5 2.1 5.5 17.4 5.5 17.4S80.9 69.9 56.8 78.5 11 86.4 8.5 73.3c0-7.8-1.4-25.6 17.4-54.8 1.1-1 2.8-2.8 9.5-2.7 6.7 0 18.1 1 25.3 3.2l2.5 1 3.1 9.2s-.1 1.7-3.8 4"
  />
  <path fill="none" stroke="#000" stroke-width="2" stroke-miterlimit="10"
  d="M38.9 27l-8 10.6s-1.4 2.9-4.5 1.3-7.2-4.3-7.2-4.3-1-.5.4-2.8S26.8 20 26.8 20s.7-.8 1.3-.3c.6.4.6 1 .6 1M8.6 68.3s4.5 11.1 17.6 10.6c13.1-.5 40.5-4.5 64.7-25.3"
  />
</symbol>

 //********//category_boiler//************//
<symbol id="category_boiler" 
viewBox="0 0 24 24"
fill="none" stroke="#000">
<path d="M8 2C6.89 2 6 2.89 6 4V16C6 17.11 6.89 18 8 18H9V20H6V22H9C10.11 22 11 21.11 11 20V18H13V20C13 21.11 13.89 22 15 22H18V20H15V18H16C17.11 18 18 17.11 18 16V4C18 2.89 17.11 2 16 2H8M12 4.97A2 2 0 0 1 14 6.97A2 2 0 0 1 12 8.97A2 2 0 0 1 10 6.97A2 2 0 0 1 12 4.97M10 14.5H14V16H10V14.5Z" />
 </symbol>



<symbol 
id="lucide/loop" 
fill='none' 
viewBox='0 0 20 20'
stroke='currentColor'
strokeLinecap='round'
strokeLinejoin='round'
strokeWidth='2'
>
<path
d='m19 19-4-4m0-7A7 7 0 1 1 1 8a7 7 0 0 1 14 0Z'>
</path>
</symbol>


<symbol  
id="lucide/catalog"
viewBox="0 0 96 96" 
stroke="currentColor">
<path d="M92.139,14.979h-6.823v-3.701c0-0.813-0.659-1.471-1.471-1.471c-16.934,0-22.372,1.473-33.206,4.408  c-0.842,0.228-1.721,0.466-2.639,0.713c-0.918-0.247-1.797-0.484-2.639-0.713C34.528,11.279,29.09,9.806,12.155,9.806  c-0.813,0-1.471,0.659-1.471,1.471v3.701H3.861c-0.813,0-1.471,0.659-1.471,1.471v63.503c0,0.813,0.659,1.471,1.471,1.471h36.248  v0.027c0,2.615,2.127,4.743,4.743,4.743h6.366c2.615,0,4.743-2.128,4.743-4.743v-0.027h36.178c0.813,0,1.471-0.659,1.471-1.471  V16.45C93.61,15.637,92.951,14.979,92.139,14.979z M51.408,17.054c10.583-2.867,15.587-4.222,30.965-4.302v58.502  c-14.316,0.121-25.126,2.027-32.902,5.805V17.578C50.137,17.398,50.783,17.223,51.408,17.054z M13.626,12.752  c15.379,0.079,20.383,1.435,30.965,4.302c0.626,0.17,1.27,0.344,1.937,0.524v59.479c-7.776-3.778-18.587-5.682-32.902-5.804V12.752z   M90.667,78.481H54.489c-0.813,0-1.471,0.659-1.471,1.471v1.499c0,0.993-0.807,1.8-1.8,1.8h-6.366c-0.992,0-1.8-0.807-1.8-1.8  v-1.499c0-0.813-0.659-1.471-1.471-1.471H5.333v-60.56h5.351v54.798c0,0.813,0.659,1.471,1.471,1.471  c15.95,0,27.435,2.154,35.109,6.585c0.228,0.131,0.482,0.197,0.736,0.197c0.254,0,0.508-0.066,0.736-0.197  c7.674-4.431,19.159-6.585,35.109-6.585c0.813,0,1.471-0.659,1.471-1.471V17.921h5.351V78.481z M43.892,36.564l-13.079-7.551  c-0.455-0.263-1.016-0.263-1.471,0l-13.079,7.551c-0.455,0.263-0.736,0.749-0.736,1.274V52.94c0,0.526,0.28,1.011,0.736,1.274  l13.079,7.551c0.228,0.131,0.482,0.197,0.736,0.197s0.508-0.066,0.736-0.197l13.079-7.551c0.455-0.263,0.736-0.749,0.736-1.274  V37.838C44.628,37.312,44.347,36.827,43.892,36.564z M30.078,43.69l-1.7-0.982l10.136-5.852l1.7,0.982L30.078,43.69z M24.585,40.519  l10.136-5.852l0.85,0.491L25.435,41.01L24.585,40.519z M23.113,43.067l0.85,0.491v2.549l-0.85-0.491V43.067z M30.078,31.986  l1.7,0.982L21.642,38.82l-1.7-0.982L30.078,31.986z M18.47,40.386l1.7,0.982v5.097c0,0.526,0.28,1.011,0.736,1.274l3.793,2.19  c0.228,0.131,0.482,0.197,0.736,0.197s0.508-0.066,0.736-0.197c0.455-0.263,0.736-0.749,0.736-1.274v-3.398l1.7,0.982v11.704  L18.47,52.091V40.386z M31.549,57.943V46.239l10.136-5.852v11.704L31.549,57.943z M65.06,34.678c0-0.813,0.659-1.471,1.471-1.471  h11.176c0.813,0,1.471,0.659,1.471,1.471c0,0.813-0.659,1.471-1.471,1.471H66.531C65.719,36.15,65.06,35.491,65.06,34.678z   M65.06,29.922c0-0.813,0.659-1.471,1.471-1.471h11.176c0.813,0,1.471,0.659,1.471,1.471s-0.659,1.471-1.471,1.471H66.531  C65.719,31.393,65.06,30.735,65.06,29.922z M65.06,43.011c0-0.813,0.659-1.471,1.471-1.471h11.176c0.813,0,1.471,0.659,1.471,1.471  s-0.659,1.471-1.471,1.471H66.531C65.719,44.482,65.06,43.824,65.06,43.011z M65.06,47.767c0-0.813,0.659-1.471,1.471-1.471h11.176  c0.813,0,1.471,0.659,1.471,1.471s-0.659,1.471-1.471,1.471H66.531C65.719,49.238,65.06,48.58,65.06,47.767z M65.06,60.856  c0-0.813,0.659-1.471,1.471-1.471h11.176c0.813,0,1.471,0.659,1.471,1.471c0,0.813-0.659,1.471-1.471,1.471H66.531  C65.719,62.327,65.06,61.669,65.06,60.856z M65.06,56.1c0-0.813,0.659-1.471,1.471-1.471h11.176c0.813,0,1.471,0.659,1.471,1.471  c0,0.813-0.659,1.471-1.471,1.471H66.531C65.719,57.571,65.06,56.912,65.06,56.1z M55.461,37.1h4.011  c1.541,0,2.795-1.254,2.795-2.795v-4.011c0-1.541-1.254-2.795-2.795-2.795h-4.011c-1.541,0-2.795,1.254-2.795,2.795v4.011  C52.666,35.847,53.92,37.1,55.461,37.1z M55.609,30.442h3.715v3.715h-3.715V30.442z M55.461,50.189h4.011  c1.541,0,2.795-1.254,2.795-2.795v-4.011c0-1.541-1.254-2.795-2.795-2.795h-4.011c-1.541,0-2.795,1.254-2.795,2.795v4.011  C52.666,48.936,53.92,50.189,55.461,50.189z M55.609,43.531h3.715v3.715h-3.715V43.531z M55.461,63.278h4.011  c1.541,0,2.795-1.254,2.795-2.795v-4.011c0-1.541-1.254-2.795-2.795-2.795h-4.011c-1.541,0-2.795,1.254-2.795,2.795v4.011  C52.666,62.024,53.92,63.278,55.461,63.278z M55.609,56.62h3.715v3.715h-3.715V56.62z">
</path>
</symbol>






<symbol 
id="lucide/phone"
viewBox="0 0 24 24" 
fill="none" 
stroke="currentColor" 
strokeWidth="2" 
strokeLinecap="round" 
strokeLinejoin="round" >
<path d="M22 16.92v3a2 2 0 0 1-2.18 2 19.79 19.79 0 0 1-8.63-3.07 19.5 19.5 0 0 1-6-6 19.79 19.79 0 0 1-3.07-8.67A2 2 0 0 1 4.11 2h3a2 2 0 0 1 2 1.72 12.84 12.84 0 0 0 .7 2.81 2 2 0 0 1-.45 2.11L8.09 9.91a16 16 0 0 0 6 6l1.27-1.27a2 2 0 0 1 2.11-.45 12.84 12.84 0 0 0 2.81.7A2 2 0 0 1 22 16.92z"></path>
</symbol>

<symbol 
id="lucide/shopping-cart"
viewBox="0 0 24 24" 
fill="none" 
stroke="currentColor" 
strokeWidth="2" 
strokeLinecap="round" 
stroke-linejoin="round" >
  <circle cx="8" cy="21" r="1" ></circle>
  <circle cx="19" cy="21" r="1" ></circle>
  <path d="M2.05 2.05h2l2.66 12.42a2 2 0 0 0 2 1.58h9.78a2 2 0 0 0 1.95-1.57l1.65-7.43H5.12" ></path>
</symbol>

<symbol 
id="lucide/user" 
viewBox="0 0 24 24" 
fill="none" 
stroke="currentColor" 
strokeWidth="2" 
strokeLinecap="round" 
strokeLinejoin="round" >
  <path d="M19 21v-2a4 4 0 0 0-4-4H9a4 4 0 0 0-4 4v2" ></path>
  <circle cx="12" cy="7" r="4" ></circle>
</symbol>

<symbol 
id="lucide/viber"
viewBox="0 0 54 54" 
fill="none" 
stroke="currentColor"
strokeWidth="2" 
strokeLinecap="round" 
strokeLinejoin="round">
<g>
	<g>
		<path d="M31.256,0H21.254C10.778,0,2.255,8.521,2.255,18.995v9.01c0,7.8,4.793,14.81,12,17.665v5.841
			c0,0.396,0.233,0.754,0.595,0.914c0.13,0.058,0.268,0.086,0.405,0.086c0.243,0,0.484-0.089,0.671-0.259L21.725,47h9.531
			c10.476,0,18.999-8.521,18.999-18.995v-9.01C50.255,8.521,41.732,0,31.256,0z M48.255,28.005C48.255,37.376,40.63,45,31.256,45
			h-9.917c-0.248,0-0.487,0.092-0.671,0.259l-4.413,3.997v-4.279c0-0.424-0.267-0.802-0.667-0.942
			C8.81,41.638,4.255,35.196,4.255,28.005v-9.01C4.255,9.624,11.881,2,21.254,2h10.002c9.374,0,16.999,7.624,16.999,16.995V28.005z"
			/>
		<path d="M39.471,30.493l-6.146-3.992c-0.672-0.437-1.472-0.585-2.255-0.423c-0.784,0.165-1.458,0.628-1.895,1.303l-0.289,0.444
			c-2.66-0.879-5.593-2.002-7.349-7.085l0.727-0.632h0c1.248-1.085,1.379-2.983,0.294-4.233l-4.808-5.531
			c-0.362-0.417-0.994-0.46-1.411-0.099l-3.019,2.624c-2.648,2.302-1.411,5.707-1.004,6.826c0.018,0.05,0.04,0.098,0.066,0.145
			c0.105,0.188,2.612,4.662,6.661,8.786c4.065,4.141,11.404,7.965,11.629,8.076c0.838,0.544,1.781,0.805,2.714,0.805
			c1.638,0,3.244-0.803,4.202-2.275l2.178-3.354C40.066,31.413,39.934,30.794,39.471,30.493z M35.91,34.142
			c-0.901,1.388-2.763,1.782-4.233,0.834c-0.073-0.038-7.364-3.835-11.207-7.75c-3.592-3.659-5.977-7.724-6.302-8.291
			c-0.792-2.221-0.652-3.586,0.464-4.556l2.265-1.968l4.152,4.776c0.369,0.424,0.326,1.044-0.096,1.411l-1.227,1.066
			c-0.299,0.26-0.417,0.671-0.3,1.049c2.092,6.798,6.16,8.133,9.13,9.108l0.433,0.143c0.433,0.146,0.907-0.021,1.155-0.403
			l0.709-1.092c0.146-0.226,0.37-0.379,0.63-0.434c0.261-0.056,0.527-0.004,0.753,0.143l5.308,3.447L35.91,34.142z"/>
		<path d="M28.538,16.247c-0.532-0.153-1.085,0.156-1.236,0.688c-0.151,0.531,0.157,1.084,0.688,1.235
			c1.49,0.424,2.677,1.613,3.097,3.104c0.124,0.44,0.525,0.729,0.962,0.729c0.09,0,0.181-0.012,0.272-0.037
			c0.531-0.15,0.841-0.702,0.691-1.234C32.405,18.578,30.69,16.859,28.538,16.247z"/>
		<path d="M36.148,22.219c0.09,0,0.181-0.012,0.272-0.037c0.532-0.15,0.841-0.703,0.691-1.234c-1.18-4.183-4.509-7.519-8.689-8.709
			c-0.531-0.153-1.084,0.158-1.235,0.689c-0.151,0.531,0.157,1.084,0.688,1.235c3.517,1,6.318,3.809,7.311,7.328
			C35.311,21.931,35.711,22.219,36.148,22.219z"/>
		<path d="M27.991,7.582c-0.532-0.153-1.085,0.156-1.236,0.689c-0.151,0.531,0.157,1.084,0.688,1.235
			c5.959,1.695,10.706,6.453,12.388,12.416c0.124,0.44,0.525,0.729,0.962,0.729c0.09,0,0.181-0.012,0.272-0.037
			c0.531-0.15,0.841-0.703,0.691-1.234C39.887,14.753,34.613,9.467,27.991,7.582z"/>
	</g>
</g>
</symbol>
</defs>
</svg>
