<?xml version="1.0" encoding="UTF-8"?>
<!-- This file is generated by npm run build:icons -->
<svg xmlns="http://www.w3.org/2000/svg" xmlns:xlink="http://www.w3.org/1999/xlink" width="0" height="0">
<defs>
<symbol x="0px" y="0px" viewBox="0 0 96 96" stroke="currentColor"  xml:space="preserve" id="lucide/catalog">
]<path d="M92.139,14.979h-6.823v-3.701c0-0.813-0.659-1.471-1.471-1.471c-16.934,0-22.372,1.473-33.206,4.408  c-0.842,0.228-1.721,0.466-2.639,0.713c-0.918-0.247-1.797-0.484-2.639-0.713C34.528,11.279,29.09,9.806,12.155,9.806  c-0.813,0-1.471,0.659-1.471,1.471v3.701H3.861c-0.813,0-1.471,0.659-1.471,1.471v63.503c0,0.813,0.659,1.471,1.471,1.471h36.248  v0.027c0,2.615,2.127,4.743,4.743,4.743h6.366c2.615,0,4.743-2.128,4.743-4.743v-0.027h36.178c0.813,0,1.471-0.659,1.471-1.471  V16.45C93.61,15.637,92.951,14.979,92.139,14.979z M51.408,17.054c10.583-2.867,15.587-4.222,30.965-4.302v58.502  c-14.316,0.121-25.126,2.027-32.902,5.805V17.578C50.137,17.398,50.783,17.223,51.408,17.054z M13.626,12.752  c15.379,0.079,20.383,1.435,30.965,4.302c0.626,0.17,1.27,0.344,1.937,0.524v59.479c-7.776-3.778-18.587-5.682-32.902-5.804V12.752z   M90.667,78.481H54.489c-0.813,0-1.471,0.659-1.471,1.471v1.499c0,0.993-0.807,1.8-1.8,1.8h-6.366c-0.992,0-1.8-0.807-1.8-1.8  v-1.499c0-0.813-0.659-1.471-1.471-1.471H5.333v-60.56h5.351v54.798c0,0.813,0.659,1.471,1.471,1.471  c15.95,0,27.435,2.154,35.109,6.585c0.228,0.131,0.482,0.197,0.736,0.197c0.254,0,0.508-0.066,0.736-0.197  c7.674-4.431,19.159-6.585,35.109-6.585c0.813,0,1.471-0.659,1.471-1.471V17.921h5.351V78.481z M43.892,36.564l-13.079-7.551  c-0.455-0.263-1.016-0.263-1.471,0l-13.079,7.551c-0.455,0.263-0.736,0.749-0.736,1.274V52.94c0,0.526,0.28,1.011,0.736,1.274  l13.079,7.551c0.228,0.131,0.482,0.197,0.736,0.197s0.508-0.066,0.736-0.197l13.079-7.551c0.455-0.263,0.736-0.749,0.736-1.274  V37.838C44.628,37.312,44.347,36.827,43.892,36.564z M30.078,43.69l-1.7-0.982l10.136-5.852l1.7,0.982L30.078,43.69z M24.585,40.519  l10.136-5.852l0.85,0.491L25.435,41.01L24.585,40.519z M23.113,43.067l0.85,0.491v2.549l-0.85-0.491V43.067z M30.078,31.986  l1.7,0.982L21.642,38.82l-1.7-0.982L30.078,31.986z M18.47,40.386l1.7,0.982v5.097c0,0.526,0.28,1.011,0.736,1.274l3.793,2.19  c0.228,0.131,0.482,0.197,0.736,0.197s0.508-0.066,0.736-0.197c0.455-0.263,0.736-0.749,0.736-1.274v-3.398l1.7,0.982v11.704  L18.47,52.091V40.386z M31.549,57.943V46.239l10.136-5.852v11.704L31.549,57.943z M65.06,34.678c0-0.813,0.659-1.471,1.471-1.471  h11.176c0.813,0,1.471,0.659,1.471,1.471c0,0.813-0.659,1.471-1.471,1.471H66.531C65.719,36.15,65.06,35.491,65.06,34.678z   M65.06,29.922c0-0.813,0.659-1.471,1.471-1.471h11.176c0.813,0,1.471,0.659,1.471,1.471s-0.659,1.471-1.471,1.471H66.531  C65.719,31.393,65.06,30.735,65.06,29.922z M65.06,43.011c0-0.813,0.659-1.471,1.471-1.471h11.176c0.813,0,1.471,0.659,1.471,1.471  s-0.659,1.471-1.471,1.471H66.531C65.719,44.482,65.06,43.824,65.06,43.011z M65.06,47.767c0-0.813,0.659-1.471,1.471-1.471h11.176  c0.813,0,1.471,0.659,1.471,1.471s-0.659,1.471-1.471,1.471H66.531C65.719,49.238,65.06,48.58,65.06,47.767z M65.06,60.856  c0-0.813,0.659-1.471,1.471-1.471h11.176c0.813,0,1.471,0.659,1.471,1.471c0,0.813-0.659,1.471-1.471,1.471H66.531  C65.719,62.327,65.06,61.669,65.06,60.856z M65.06,56.1c0-0.813,0.659-1.471,1.471-1.471h11.176c0.813,0,1.471,0.659,1.471,1.471  c0,0.813-0.659,1.471-1.471,1.471H66.531C65.719,57.571,65.06,56.912,65.06,56.1z M55.461,37.1h4.011  c1.541,0,2.795-1.254,2.795-2.795v-4.011c0-1.541-1.254-2.795-2.795-2.795h-4.011c-1.541,0-2.795,1.254-2.795,2.795v4.011  C52.666,35.847,53.92,37.1,55.461,37.1z M55.609,30.442h3.715v3.715h-3.715V30.442z M55.461,50.189h4.011  c1.541,0,2.795-1.254,2.795-2.795v-4.011c0-1.541-1.254-2.795-2.795-2.795h-4.011c-1.541,0-2.795,1.254-2.795,2.795v4.011  C52.666,48.936,53.92,50.189,55.461,50.189z M55.609,43.531h3.715v3.715h-3.715V43.531z M55.461,63.278h4.011  c1.541,0,2.795-1.254,2.795-2.795v-4.011c0-1.541-1.254-2.795-2.795-2.795h-4.011c-1.541,0-2.795,1.254-2.795,2.795v4.011  C52.666,62.024,53.92,63.278,55.461,63.278z M55.609,56.62h3.715v3.715h-3.715V56.62z"></path></symbol>
<symbol viewBox="0 0 24 24" fill="none" stroke="currentColor" stroke-width="2" stroke-linecap="round" stroke-linejoin="round" id="lucide/phone">
  <path d="M22 16.92v3a2 2 0 0 1-2.18 2 19.79 19.79 0 0 1-8.63-3.07 19.5 19.5 0 0 1-6-6 19.79 19.79 0 0 1-3.07-8.67A2 2 0 0 1 4.11 2h3a2 2 0 0 1 2 1.72 12.84 12.84 0 0 0 .7 2.81 2 2 0 0 1-.45 2.11L8.09 9.91a16 16 0 0 0 6 6l1.27-1.27a2 2 0 0 1 2.11-.45 12.84 12.84 0 0 0 2.81.7A2 2 0 0 1 22 16.92z" ></path>
</symbol>

<symbol viewBox="0 0 24 24" fill="none" stroke="currentColor" stroke-width="2" stroke-linecap="round" stroke-linejoin="round" id="lucide/shopping-cart">
  <circle cx="8" cy="21" r="1" ></circle>
  <circle cx="19" cy="21" r="1" ></circle>
  <path d="M2.05 2.05h2l2.66 12.42a2 2 0 0 0 2 1.58h9.78a2 2 0 0 0 1.95-1.57l1.65-7.43H5.12" ></path>
</symbol>

<symbol viewBox="0 0 24 24" fill="none" stroke="currentColor" stroke-width="2" stroke-linecap="round" stroke-linejoin="round" id="lucide/user">
  <path d="M19 21v-2a4 4 0 0 0-4-4H9a4 4 0 0 0-4 4v2" ></path>
  <circle cx="12" cy="7" r="4" ></circle>
</symbol>

<symbol id="simpleIcons/viber"

viewBox="0 0 54 54" fill="none" stroke="currentColor" xml:space="preserve">
<g>
	<g>
		<path d="M31.256,0H21.254C10.778,0,2.255,8.521,2.255,18.995v9.01c0,7.8,4.793,14.81,12,17.665v5.841
			c0,0.396,0.233,0.754,0.595,0.914c0.13,0.058,0.268,0.086,0.405,0.086c0.243,0,0.484-0.089,0.671-0.259L21.725,47h9.531
			c10.476,0,18.999-8.521,18.999-18.995v-9.01C50.255,8.521,41.732,0,31.256,0z M48.255,28.005C48.255,37.376,40.63,45,31.256,45
			h-9.917c-0.248,0-0.487,0.092-0.671,0.259l-4.413,3.997v-4.279c0-0.424-0.267-0.802-0.667-0.942
			C8.81,41.638,4.255,35.196,4.255,28.005v-9.01C4.255,9.624,11.881,2,21.254,2h10.002c9.374,0,16.999,7.624,16.999,16.995V28.005z"
			/>
		<path d="M39.471,30.493l-6.146-3.992c-0.672-0.437-1.472-0.585-2.255-0.423c-0.784,0.165-1.458,0.628-1.895,1.303l-0.289,0.444
			c-2.66-0.879-5.593-2.002-7.349-7.085l0.727-0.632h0c1.248-1.085,1.379-2.983,0.294-4.233l-4.808-5.531
			c-0.362-0.417-0.994-0.46-1.411-0.099l-3.019,2.624c-2.648,2.302-1.411,5.707-1.004,6.826c0.018,0.05,0.04,0.098,0.066,0.145
			c0.105,0.188,2.612,4.662,6.661,8.786c4.065,4.141,11.404,7.965,11.629,8.076c0.838,0.544,1.781,0.805,2.714,0.805
			c1.638,0,3.244-0.803,4.202-2.275l2.178-3.354C40.066,31.413,39.934,30.794,39.471,30.493z M35.91,34.142
			c-0.901,1.388-2.763,1.782-4.233,0.834c-0.073-0.038-7.364-3.835-11.207-7.75c-3.592-3.659-5.977-7.724-6.302-8.291
			c-0.792-2.221-0.652-3.586,0.464-4.556l2.265-1.968l4.152,4.776c0.369,0.424,0.326,1.044-0.096,1.411l-1.227,1.066
			c-0.299,0.26-0.417,0.671-0.3,1.049c2.092,6.798,6.16,8.133,9.13,9.108l0.433,0.143c0.433,0.146,0.907-0.021,1.155-0.403
			l0.709-1.092c0.146-0.226,0.37-0.379,0.63-0.434c0.261-0.056,0.527-0.004,0.753,0.143l5.308,3.447L35.91,34.142z"/>
		<path d="M28.538,16.247c-0.532-0.153-1.085,0.156-1.236,0.688c-0.151,0.531,0.157,1.084,0.688,1.235
			c1.49,0.424,2.677,1.613,3.097,3.104c0.124,0.44,0.525,0.729,0.962,0.729c0.09,0,0.181-0.012,0.272-0.037
			c0.531-0.15,0.841-0.702,0.691-1.234C32.405,18.578,30.69,16.859,28.538,16.247z"/>
		<path d="M36.148,22.219c0.09,0,0.181-0.012,0.272-0.037c0.532-0.15,0.841-0.703,0.691-1.234c-1.18-4.183-4.509-7.519-8.689-8.709
			c-0.531-0.153-1.084,0.158-1.235,0.689c-0.151,0.531,0.157,1.084,0.688,1.235c3.517,1,6.318,3.809,7.311,7.328
			C35.311,21.931,35.711,22.219,36.148,22.219z"/>
		<path d="M27.991,7.582c-0.532-0.153-1.085,0.156-1.236,0.689c-0.151,0.531,0.157,1.084,0.688,1.235
			c5.959,1.695,10.706,6.453,12.388,12.416c0.124,0.44,0.525,0.729,0.962,0.729c0.09,0,0.181-0.012,0.272-0.037
			c0.531-0.15,0.841-0.703,0.691-1.234C39.887,14.753,34.613,9.467,27.991,7.582z"/>
	</g>
</g></symbol>
</defs>
</svg>
