<!-- lucide-icons -->

<svg xmlns="http://www.w3.org/2000/svg" xmlns:xlink="http://www.w3.org/1999/xlink" 
version="1.1" x="0px" y="0px" 
viewBox="0 0 96 120"
stroke="currentColor"
style="enable-background:new 0 0 96 96;" xml:space="preserve">
]<path d="M92.139,14.979h-6.823v-3.701c0-0.813-0.659-1.471-1.471-1.471c-16.934,0-22.372,1.473-33.206,4.408  c-0.842,0.228-1.721,0.466-2.639,0.713c-0.918-0.247-1.797-0.484-2.639-0.713C34.528,11.279,29.09,9.806,12.155,9.806  c-0.813,0-1.471,0.659-1.471,1.471v3.701H3.861c-0.813,0-1.471,0.659-1.471,1.471v63.503c0,0.813,0.659,1.471,1.471,1.471h36.248  v0.027c0,2.615,2.127,4.743,4.743,4.743h6.366c2.615,0,4.743-2.128,4.743-4.743v-0.027h36.178c0.813,0,1.471-0.659,1.471-1.471  V16.45C93.61,15.637,92.951,14.979,92.139,14.979z M51.408,17.054c10.583-2.867,15.587-4.222,30.965-4.302v58.502  c-14.316,0.121-25.126,2.027-32.902,5.805V17.578C50.137,17.398,50.783,17.223,51.408,17.054z M13.626,12.752  c15.379,0.079,20.383,1.435,30.965,4.302c0.626,0.17,1.27,0.344,1.937,0.524v59.479c-7.776-3.778-18.587-5.682-32.902-5.804V12.752z   M90.667,78.481H54.489c-0.813,0-1.471,0.659-1.471,1.471v1.499c0,0.993-0.807,1.8-1.8,1.8h-6.366c-0.992,0-1.8-0.807-1.8-1.8  v-1.499c0-0.813-0.659-1.471-1.471-1.471H5.333v-60.56h5.351v54.798c0,0.813,0.659,1.471,1.471,1.471  c15.95,0,27.435,2.154,35.109,6.585c0.228,0.131,0.482,0.197,0.736,0.197c0.254,0,0.508-0.066,0.736-0.197  c7.674-4.431,19.159-6.585,35.109-6.585c0.813,0,1.471-0.659,1.471-1.471V17.921h5.351V78.481z M43.892,36.564l-13.079-7.551  c-0.455-0.263-1.016-0.263-1.471,0l-13.079,7.551c-0.455,0.263-0.736,0.749-0.736,1.274V52.94c0,0.526,0.28,1.011,0.736,1.274  l13.079,7.551c0.228,0.131,0.482,0.197,0.736,0.197s0.508-0.066,0.736-0.197l13.079-7.551c0.455-0.263,0.736-0.749,0.736-1.274  V37.838C44.628,37.312,44.347,36.827,43.892,36.564z M30.078,43.69l-1.7-0.982l10.136-5.852l1.7,0.982L30.078,43.69z M24.585,40.519  l10.136-5.852l0.85,0.491L25.435,41.01L24.585,40.519z M23.113,43.067l0.85,0.491v2.549l-0.85-0.491V43.067z M30.078,31.986  l1.7,0.982L21.642,38.82l-1.7-0.982L30.078,31.986z M18.47,40.386l1.7,0.982v5.097c0,0.526,0.28,1.011,0.736,1.274l3.793,2.19  c0.228,0.131,0.482,0.197,0.736,0.197s0.508-0.066,0.736-0.197c0.455-0.263,0.736-0.749,0.736-1.274v-3.398l1.7,0.982v11.704  L18.47,52.091V40.386z M31.549,57.943V46.239l10.136-5.852v11.704L31.549,57.943z M65.06,34.678c0-0.813,0.659-1.471,1.471-1.471  h11.176c0.813,0,1.471,0.659,1.471,1.471c0,0.813-0.659,1.471-1.471,1.471H66.531C65.719,36.15,65.06,35.491,65.06,34.678z   M65.06,29.922c0-0.813,0.659-1.471,1.471-1.471h11.176c0.813,0,1.471,0.659,1.471,1.471s-0.659,1.471-1.471,1.471H66.531  C65.719,31.393,65.06,30.735,65.06,29.922z M65.06,43.011c0-0.813,0.659-1.471,1.471-1.471h11.176c0.813,0,1.471,0.659,1.471,1.471  s-0.659,1.471-1.471,1.471H66.531C65.719,44.482,65.06,43.824,65.06,43.011z M65.06,47.767c0-0.813,0.659-1.471,1.471-1.471h11.176  c0.813,0,1.471,0.659,1.471,1.471s-0.659,1.471-1.471,1.471H66.531C65.719,49.238,65.06,48.58,65.06,47.767z M65.06,60.856  c0-0.813,0.659-1.471,1.471-1.471h11.176c0.813,0,1.471,0.659,1.471,1.471c0,0.813-0.659,1.471-1.471,1.471H66.531  C65.719,62.327,65.06,61.669,65.06,60.856z M65.06,56.1c0-0.813,0.659-1.471,1.471-1.471h11.176c0.813,0,1.471,0.659,1.471,1.471  c0,0.813-0.659,1.471-1.471,1.471H66.531C65.719,57.571,65.06,56.912,65.06,56.1z M55.461,37.1h4.011  c1.541,0,2.795-1.254,2.795-2.795v-4.011c0-1.541-1.254-2.795-2.795-2.795h-4.011c-1.541,0-2.795,1.254-2.795,2.795v4.011  C52.666,35.847,53.92,37.1,55.461,37.1z M55.609,30.442h3.715v3.715h-3.715V30.442z M55.461,50.189h4.011  c1.541,0,2.795-1.254,2.795-2.795v-4.011c0-1.541-1.254-2.795-2.795-2.795h-4.011c-1.541,0-2.795,1.254-2.795,2.795v4.011  C52.666,48.936,53.92,50.189,55.461,50.189z M55.609,43.531h3.715v3.715h-3.715V43.531z M55.461,63.278h4.011  c1.541,0,2.795-1.254,2.795-2.795v-4.011c0-1.541-1.254-2.795-2.795-2.795h-4.011c-1.541,0-2.795,1.254-2.795,2.795v4.011  C52.666,62.024,53.92,63.278,55.461,63.278z M55.609,56.62h3.715v3.715h-3.715V56.62z"/></svg>