<?xml version="1.0" standalone="no"?>
<!DOCTYPE svg PUBLIC "-//W3C//DTD SVG 20010904//EN"
 "http://www.w3.org/TR/2001/REC-SVG-20010904/DTD/svg10.dtd">
<svg version="1.0" xmlns="http://www.w3.org/2000/svg"
 width="225.000000pt" height="225.000000pt" viewBox="0 0 225.000000 225.000000"
 preserveAspectRatio="xMidYMid meet">

<g transform="translate(0.000000,225.000000) scale(0.100000,-0.100000)"
fill="#000000" stroke="none">
<path d="M1055 2231 c-94 -42 -135 -138 -101 -234 l17 -47 -159 -183 c-87
-100 -164 -192 -170 -204 -16 -29 14 -69 45 -59 12 4 95 91 186 194 l164 187
88 0 88 0 164 -187 c90 -103 174 -190 185 -194 32 -10 62 30 46 59 -6 12 -83
104 -170 205 l-160 183 16 40 c32 79 15 151 -47 206 -35 31 -91 53 -132 53
-11 0 -38 -9 -60 -19z m104 -82 c94 -33 66 -179 -34 -179 -93 0 -127 131 -46
175 32 17 40 18 80 4z"/>
<path d="M97 1379 c-71 -38 -112 -137 -87 -213 16 -49 54 -93 101 -117 22 -11
39 -21 39 -24 0 -29 175 -856 186 -877 31 -59 19 -58 653 -58 l580 0 48 -30
c53 -32 147 -60 204 -60 167 0 314 93 386 246 35 73 37 84 37 174 0 90 -2 101
-37 174 -27 56 -53 94 -96 134 l-60 57 14 65 c7 36 18 91 25 123 10 52 15 59
49 77 47 24 85 68 101 116 26 77 -16 176 -90 214 -39 20 -55 20 -1027 20 -965
-1 -989 -1 -1026 -21z m2014 -79 c29 -16 51 -67 44 -100 -4 -16 -20 -41 -37
-55 l-30 -25 -965 0 -965 0 -34 34 c-19 19 -34 44 -34 55 0 29 26 77 47 90 25
14 1947 15 1974 1z m-123 -372 c-11 -57 -21 -104 -22 -105 -1 -1 -22 3 -46 9
-25 5 -80 8 -122 5 -152 -10 -283 -101 -351 -245 -30 -62 -32 -74 -31 -172 0
-92 3 -112 27 -164 15 -32 27 -60 27 -62 0 -2 -238 -4 -530 -4 -291 0 -530 2
-530 4 0 6 -157 782 -165 814 l-5 22 883 0 884 0 -19 -102z m-8 -219 c33 -18
75 -48 92 -68 115 -131 110 -329 -12 -451 -66 -66 -138 -95 -235 -94 -88 1
-136 17 -184 61 -16 16 -40 35 -53 44 -38 26 -80 120 -85 192 -9 113 36 215
129 290 94 76 235 86 348 26z"/>
<path d="M672 828 c-17 -17 -17 -419 0 -436 15 -15 51 -15 66 0 9 9 12 70 12
214 0 171 -2 205 -16 218 -18 19 -45 21 -62 4z"/>
<path d="M952 828 c-17 -17 -17 -419 0 -436 15 -15 51 -15 66 0 15 15 17 400
2 429 -12 21 -50 25 -68 7z"/>
<path d="M1236 824 c-13 -13 -16 -46 -16 -210 0 -116 4 -203 10 -215 12 -21
50 -25 68 -7 17 17 17 419 0 436 -17 17 -44 15 -62 -4z"/>
<path d="M1879 465 l-95 -96 -58 51 c-54 47 -60 50 -80 37 -39 -26 -31 -48 48
-126 61 -61 78 -73 98 -68 29 8 248 228 248 250 0 21 -27 47 -48 47 -10 0 -60
-43 -113 -95z"/>
</g>
</svg>
